<svg width="10" height="9" viewBox="0 0 10 9" fill="none" xmlns="http://www.w3.org/2000/svg">
<path d="M5.83632 4.50043L8.86356 1.47233C8.94536 1.39334 9.01059 1.29884 9.05547 1.19436C9.10036 1.08988 9.12398 0.97751 9.12497 0.863803C9.12596 0.750096 9.10429 0.637331 9.06123 0.532087C9.01817 0.426843 8.95458 0.331229 8.87418 0.250822C8.79377 0.170416 8.69816 0.106829 8.59291 0.0637701C8.48767 0.0207115 8.3749 -0.000955751 8.2612 3.23337e-05C8.14749 0.00102042 8.03512 0.0246443 7.93064 0.0695253C7.82616 0.114406 7.73166 0.179646 7.65267 0.261437L4.62457 3.28868L1.59733 0.261437C1.51834 0.179646 1.42384 0.114406 1.31936 0.0695253C1.21488 0.0246443 1.10251 0.00102042 0.988803 3.23337e-05C0.875096 -0.000955751 0.762331 0.0207115 0.657087 0.0637701C0.551843 0.106829 0.456229 0.170416 0.375822 0.250822C0.295416 0.331229 0.231829 0.426843 0.18877 0.532087C0.145711 0.637331 0.124044 0.750096 0.125032 0.863803C0.12602 0.97751 0.149644 1.08988 0.194525 1.19436C0.239406 1.29884 0.304646 1.39334 0.386437 1.47233L3.41368 4.49957L0.386437 7.52767C0.304646 7.60666 0.239406 7.70116 0.194525 7.80564C0.149644 7.91012 0.12602 8.02249 0.125032 8.1362C0.124044 8.2499 0.145711 8.36267 0.18877 8.46791C0.231829 8.57316 0.295416 8.66877 0.375822 8.74918C0.456229 8.82958 0.551843 8.89317 0.657087 8.93623C0.762331 8.97929 0.875096 9.00096 0.988803 8.99997C1.10251 8.99898 1.21488 8.97536 1.31936 8.93047C1.42384 8.88559 1.51834 8.82036 1.59733 8.73856L4.62457 5.71132L7.65267 8.73856C7.73166 8.82036 7.82616 8.88559 7.93064 8.93047C8.03512 8.97536 8.14749 8.99898 8.2612 8.99997C8.3749 9.00096 8.48767 8.97929 8.59291 8.93623C8.69816 8.89317 8.79377 8.82958 8.87418 8.74918C8.95458 8.66877 9.01817 8.57316 9.06123 8.46791C9.10429 8.36267 9.12596 8.2499 9.12497 8.1362C9.12398 8.02249 9.10036 7.91012 9.05547 7.80564C9.01059 7.70116 8.94536 7.60666 8.86356 7.52767L5.83632 4.49957V4.50043Z" fill="#4A4A4A"/>
</svg>
