<svg width="78" height="81" viewBox="0 0 78 81" fill="none" xmlns="http://www.w3.org/2000/svg">
<path fill-rule="evenodd" clip-rule="evenodd" d="M49.6957 10.1658C49.786 15.3328 45.6702 19.5946 40.5031 19.6848C35.3358 19.775 31.0739 15.6594 30.9837 10.4924C30.8935 5.32537 35.0092 1.06359 40.1764 0.973378C45.3436 0.883199 49.6056 4.99877 49.6957 10.1658ZM47.0877 75.2504C47.1418 78.3503 44.6726 80.9071 41.5726 80.9612C38.4726 81.0153 35.9157 78.5463 35.8616 75.4463C35.8075 72.3465 38.2767 69.7897 41.3767 69.7356C44.4766 69.6814 47.0336 72.1506 47.0877 75.2504ZM17.6635 28.6707C22.3143 28.5895 26.0187 24.7536 25.9376 20.103C25.8564 15.4524 22.0204 11.7481 17.3695 11.8292C12.7187 11.9104 9.01429 15.7463 9.09546 20.397C9.17664 25.0476 13.0127 28.7519 17.6635 28.6707ZM68.9758 65.3398C69.0209 67.9233 66.9631 70.0542 64.3795 70.0992C61.7958 70.1443 59.6649 68.0866 59.6198 65.5031C59.5746 62.9195 61.6326 60.7887 64.2161 60.7436C66.7998 60.6985 68.9307 62.7563 68.9758 65.3398ZM8.52542 50.8905C12.6582 50.8183 15.95 47.4097 15.8778 43.2771C15.8057 39.1445 12.397 35.8529 8.26423 35.925C4.13147 35.9971 0.839665 39.4058 0.911808 43.5384C0.983952 47.6709 4.39267 50.9626 8.52542 50.8905ZM77.1566 42.2045C77.1926 44.2699 75.5474 45.9736 73.4819 46.0096C71.4163 46.0456 69.7127 44.4005 69.6766 42.335C69.6405 40.2696 71.2858 38.566 73.3513 38.5299C75.4168 38.4938 77.1205 40.139 77.1566 42.2045ZM13.6089 61.6816C11.0944 64.2853 11.1667 68.4258 13.7705 70.9401C16.3712 73.4545 20.518 73.3821 23.0294 70.7785C25.5438 68.1749 25.4715 64.0343 22.8678 61.5199C20.267 59.0026 16.1228 59.0506 13.6089 61.6816ZM66.2972 19.3985C66.3243 20.9476 65.0904 22.2253 63.5413 22.2523C61.9921 22.2794 60.7143 21.0455 60.6873 19.4964C60.6602 17.9473 61.8942 16.6696 63.4433 16.6426C64.9925 16.6155 66.2702 17.8494 66.2972 19.3985Z" fill="white" fill-opacity="0.5"/>
</svg>
